<svg xmlns="http://www.w3.org/2000/svg" viewBox="0 0 112.37 119.07"><defs><style>.cls-1{isolation:isolate;}.cls-2{fill:#efbfa5;}.cls-3{fill:#dadada;}.cls-3,.cls-6{mix-blend-mode:multiply;}.cls-4{fill:#fff;}.cls-5{fill:#d42a26;}.cls-6{fill:#c6c6c6;}.cls-7{fill:#002632;}.cls-8{fill:#001922;}.cls-9{fill:#852d00;}.cls-10{fill:#963202;}.cls-11{fill:#0d3953;}</style></defs><title>Asset 3</title><g class="cls-1"><g id="Layer_2" data-name="Layer 2"><g id="Capa_1" data-name="Capa 1"><rect class="cls-2" x="45.5" y="72.7" width="21.3" height="11.21"/><path class="cls-3" d="M51.45,81.29a20.38,20.38,0,0,0,9.4-2.64A16.9,16.9,0,0,0,66,74.22c.26-.34.54-.72.8-1.13V72.7H45.5v8.38A47.4,47.4,0,0,0,51.45,81.29Z"/><path class="cls-2" d="M56.16,11.15h0c-13.61.39-24,6-24,25.26,0,11.44,1.07,14.81,4.4,27.86,2.31,9,14.57,13.79,19.25,14.1l.31,0,.31,0c4.67-.31,16.94-5.07,19.24-14.1,3.33-13,4.38-16.42,4.41-27.86C80.16,17.13,69.77,11.54,56.16,11.15Z"/><path class="cls-2" d="M77.5,43,76,54.37c5.85,2.57,6.76-10.83,6.76-10.83C81.42,40.2,77.5,43,77.5,43Z"/><path class="cls-2" d="M28.81,44.91s.91,13.4,6.76,10.82L34.08,44.35S30.16,41.56,28.81,44.91Z"/><path class="cls-2" d="M67,85.27l28.78,7.49s9.81,1.5,12.32,10.32l4.29,16H0l4.29-16C6.8,94.26,16.62,92.76,16.62,92.76L45.3,85.27Z"/><path class="cls-4" d="M0,119.07l4.29-16C6.8,94.26,16.62,92.76,16.62,92.76L45.3,85.27H67l28.78,7.49s9.81,1.5,12.32,10.32l4.29,16"/><polygon class="cls-5" points="58.04 83.9 56.22 83.9 56.15 83.9 54.34 83.9 49.07 92.21 53.78 97.51 56.15 97.51 56.22 97.51 58.59 97.51 63.31 92.21 58.04 83.9"/><path class="cls-6" d="M58.81,96.5a14.83,14.83,0,0,1-3.59-12.6h-.88l-5.27,8.31,4.71,5.3h4.81l.58-.65Q59,96.68,58.81,96.5Z"/><polygon class="cls-6" points="66.83 78.66 56.1 84.26 63.18 94.91 76.01 87.18 66.83 78.66"/><polygon class="cls-4" points="66.83 78.66 56.1 84.26 63.3 93.49 75.31 86.54 66.83 78.66"/><polygon class="cls-6" points="45.44 78.3 56.1 83.9 49.1 94.55 36.26 86.82 45.44 78.3"/><polygon class="cls-4" points="45.44 78.3 56.17 83.9 48.97 93.14 36.97 86.19 45.44 78.3"/><path class="cls-7" d="M37.1,87.42,16.62,92.76S6.8,94.26,4.29,103.08L0,119.07H112.37l-4.29-16c-2.51-8.82-12.32-10.32-12.32-10.32L74.3,86.6,56.1,118.28Z"/><polygon class="cls-5" points="53.7 97.51 51.13 108.84 56.1 116.91 60.74 108.84 58.51 97.51 53.7 97.51"/><polygon class="cls-8" points="37.1 87.42 27.4 89.95 32.87 92.07 29.49 95.91 49.07 119.07 56.67 119.07 37.1 87.42"/><polygon class="cls-8" points="74.3 85.24 84.98 88.3 79.51 90.71 82.89 94.55 63.31 117.71 55.71 117.71 74.3 85.24"/><path class="cls-9" d="M32.5,44.4l2.13,12.8,1.77,1.15-1.77-18,3-7.17.73-5.9.09-.06c2.17-7.59,18.89-6.66,18.89-6.66,19.9.41,17.21,14.24,17.21,14.24L77.52,41,75.75,59l1.77-1.15,2.12-12.8c3.22-7,1.29-23.38,1.29-23.38S78.51,15,73.35,14.25c0,0-2.41-11.15-18.24-9.14,0,0-14.73,3.41-19.54-5.11,0,0-.19,5.73,2.92,7.75,0,0-3.16-1.86-3.67-3.57,0,0,.23,3.58,2.18,4.82-1-.57-4.55-2.87-5.84-6.21,0,0-1,5.42,3.16,8.36,0,0-5.75-3.25-5.51-7,0,0-1.79,7.59,3.38,9.45,0,0-1.9,1.4-6.4-3.87,0,0-1.29,9,5.12,9.91C30.91,19.67,28.38,24.79,32.5,44.4ZM37.25,9.14h0Z"/><path class="cls-10" d="M32.46,26.8c.43.15,1.58,1.07,2.3,1.39-.06-2.37-.75-4.76-.58-7.26a40.58,40.58,0,0,0,4,1.63,5.94,5.94,0,0,1-1.2-4.1c1.79-.24,3.24,1.28,4.91,1.19.16-1.25-.36-2.54-.26-3.83,2.63.41,5.37,1.55,8,2a21.6,21.6,0,0,1-1.51-3.24c3.33.66,6.68,1.71,10,2.31-.28-.9-1.3-1.7-1.22-2.75,3.54-.38,7.44,2.72,10.8,3.52a4.22,4.22,0,0,1-1.63-1.86,38.64,38.64,0,0,1,6.78,4.31,6.9,6.9,0,0,1-.86-.85c1,.76,2,1.55,2.89,2.4-1-2.57-4.35-3.39-5.07-6.1a5.92,5.92,0,0,0,1.6,1.63c-.9-2.07-3.41-3.85-5.09-5.26A6.38,6.38,0,0,0,63.9,10.3a33.82,33.82,0,0,0,2.59,3.75c-1.56-1-3.22-3-5-3.35.19,1.17,1.44,2.28,1.82,3.38-2.37-1-4.47-4.68-7.1-4.93.35.64.9,1.35,1.2,2-1.34-.85-3.87-2.22-5.52-2,0,1.16.9,2.43,1.51,3.38-1.91-.81-3.83-2.71-6-2.75.52.59,1.27,1.06,1.79,1.66-1.44,0-5.54-2.21-6.77-1.19-.84.69.21,1.63.32,2.6-.89-.43-3.91-2.45-5-1.55s1.15,2.31,1.36,3.25c-1.5-.29-2.81-1.34-4.42-1.2.19.73.89,1.28,1.32,2-1-.07-1.85-.8-2.87-.54a4.46,4.46,0,0,0,.07,1.63c-.44-.16-1-.42-1.48-.59a14.56,14.56,0,0,1,.9,2l-.27.05a4.27,4.27,0,0,1,.58,2.09c-.24-.19-.65-.24-.89-.4-.17,1.19.18,2.47.11,3.69-.08.07-.29,0-.39.05.3.21.4.5.67.71l-.23.07c.52,1,.73,2.82,0,3.75a3.6,3.6,0,0,1,.48-1.16"/><path class="cls-11" d="M81.91,41,77.57,39.6v.12a32.73,32.73,0,0,0-18.22,0v0a14.54,14.54,0,0,1-6.13,0c-.28-.08-.72-.21-1.29-.34h0a33.07,33.07,0,0,0-16,.24v-.08l-4.29.83v3.75l3.66,1c.62,4,3,8.61,10.72,7.8,0,0,7.84-.81,8.12-8.76a13.12,13.12,0,0,0,0-1.32,3,3,0,0,1,4.64.21c0,.57,0,1,0,1,.27,7.94,8.12,8.76,8.12,8.76,7.53.78,10-3.58,10.66-7.48l4.24-.7ZM52.36,44.57c-.22,6.49-6.63,7.16-6.63,7.16C34.9,52.86,37,41,37,41a26.74,26.74,0,0,1,14.95,0A9.3,9.3,0,0,1,52.36,44.57Zm14.82,7s-6.41-.66-6.64-7.16A9.42,9.42,0,0,1,61,40.85a26.7,26.7,0,0,1,14.94,0S78,52.7,67.18,51.57Z"/></g></g></g></svg>