<svg xmlns="http://www.w3.org/2000/svg" viewBox="0 0 112.37 114.45"><defs><style>.cls-1{isolation:isolate;}.cls-2{fill:#efbfa5;}.cls-3{fill:#dadada;}.cls-3,.cls-6{mix-blend-mode:multiply;}.cls-4{fill:#fff;}.cls-5{fill:#1a7290;}.cls-6{fill:#c6c6c6;}.cls-7{fill:#262b33;}.cls-8{fill:#020408;}.cls-9{fill:#5b1e00;}.cls-10{fill:#762800;}</style></defs><title>Asset 4</title><g class="cls-1"><g id="Layer_2" data-name="Layer 2"><g id="Capa_1" data-name="Capa 1"><rect class="cls-2" x="45.5" y="69.44" width="21.3" height="11.21"/><path class="cls-3" d="M51.45,78a20.26,20.26,0,0,0,9.4-2.64A16.77,16.77,0,0,0,66,71a13.57,13.57,0,0,0,.8-1.12v-.4H45.5v8.38A47.4,47.4,0,0,0,51.45,78Z"/><path class="cls-2" d="M56.16,6.53h0c-13.61.39-24,6-24,25.26,0,11.44,1.07,14.81,4.4,27.85,2.31,9,14.57,13.8,19.25,14.1l.31,0,.31,0c4.67-.3,16.94-5.07,19.24-14.1,3.33-13,4.38-16.41,4.41-27.85C80.15,12.51,69.77,6.92,56.16,6.53Z"/><path class="cls-2" d="M77.5,39.72,76,51.11c5.85,2.58,6.76-10.83,6.76-10.83C81.42,36.94,77.5,39.72,77.5,39.72Z"/><path class="cls-2" d="M28.81,40.28s.91,13.41,6.76,10.83L34.08,39.72S30.16,36.94,28.81,40.28Z"/><path class="cls-2" d="M67,80.64l28.78,7.49s9.81,1.51,12.32,10.33l4.29,16H0l4.29-16C6.8,89.64,16.62,88.13,16.62,88.13L45.3,80.64Z"/><path class="cls-4" d="M0,114.45l4.29-16C6.8,89.64,16.62,88.13,16.62,88.13L45.3,80.64H67l28.78,7.49s9.81,1.51,12.32,10.33l4.29,16"/><polygon class="cls-5" points="58.04 80.64 56.22 80.64 56.15 80.64 54.34 80.64 49.07 88.95 53.78 94.25 56.15 94.25 56.22 94.25 58.59 94.25 63.31 88.95 58.04 80.64"/><path class="cls-6" d="M58.81,93.24a14.82,14.82,0,0,1-3.59-12.6h-.88L49.07,89l4.71,5.31h4.81l.58-.66Q59,93.42,58.81,93.24Z"/><polygon class="cls-6" points="66.83 75.4 56.1 81 63.18 91.65 76.01 83.92 66.83 75.4"/><polygon class="cls-4" points="66.83 75.4 56.1 81 63.3 90.24 75.31 83.28 66.83 75.4"/><polygon class="cls-6" points="45.44 75.04 56.1 80.64 49.1 91.29 36.26 83.57 45.44 75.04"/><polygon class="cls-4" points="45.44 75.04 56.17 80.64 48.97 89.88 36.97 82.93 45.44 75.04"/><path class="cls-7" d="M37.1,82.8,16.62,88.13S6.8,89.64,4.29,98.46L0,114.45H112.37l-4.29-16c-2.51-8.82-12.32-10.33-12.32-10.33L74.3,82,56.1,113.66Z"/><polygon class="cls-5" points="53.7 94.25 51.13 105.58 56.1 113.66 60.74 105.58 58.51 94.25 53.7 94.25"/><polygon class="cls-8" points="37.1 82.8 27.4 85.33 32.87 87.45 29.49 91.29 49.07 114.45 56.67 114.45 37.1 82.8"/><polygon class="cls-8" points="74.3 81.98 84.98 85.04 79.51 87.45 82.89 91.29 63.31 114.45 55.71 114.45 74.3 81.98"/><path class="cls-9" d="M34.42,41.39l1.2,14.45C29.3,38.85,33,16.61,33,16.61,33.61,10.84,40,9,40,9c1.24-7.13,14.11-9,14.11-9,35.31-1.24,26,37.65,26,37.65,0,5.88-3.82,19.67-3.82,19.67l1.43-18.71c0-3.57-3.41-7.36-3.16-10,1.45-15.48-10-13.59-10-13.59-7,1.36-15.46,0-15.46,0S35.57,10.57,37,29.46C37,29.46,38.11,31.49,34.42,41.39Z"/><path class="cls-10" d="M43.5,6.61a26.89,26.89,0,0,1,2.57,3.64c0-1.2,0-2.42,0-3.62,1.35.85,2.51,2.94,4.11,3.21.06-.8,0-1.71.12-2.46,1.82,1.1,6.2,4.23,6,0,1.64.44,3,2.41,4.81,2.72,0-.33.11-.76.07-1.09,1.14,0,3.65,2.79,3.72.23,1.51.12,4.69,2.26,5.85,3.23a18.76,18.76,0,0,1,4.35,4.64,9,9,0,0,0,0-3c.63,1.36,2,3.36,3.47,3.62l-.39-.58a3.83,3.83,0,0,0,.43,1.47,11.65,11.65,0,0,0-3-6.18,6.08,6.08,0,0,1,0,.61,3.16,3.16,0,0,0-1.12-1.77c0,.55-.42,1.16-.34,1.78a31.88,31.88,0,0,0-2.34-4.58A5.26,5.26,0,0,0,71.33,10a4.59,4.59,0,0,0-2-3.37c-.06.26-.21.58-.27.9-.58-.79-1-2-2.24-1.8a9.56,9.56,0,0,1-.48.92A19.85,19.85,0,0,0,64,5c.08.47-.14,1.1-.06,1.59-1.32-.66-2.6-2.19-4.09-1.17A8.13,8.13,0,0,0,55,2.91c-.35,1.37.76,2.6,1.74,3.48a33.21,33.21,0,0,0-5-3.18c-.17,2.08-2.1.6-2.89,2-1.14-.59-2.53-1.16-3.48,0-3-2.48-3.2,1.62-1.35,2.59"/></g></g></g></svg>