<svg xmlns="http://www.w3.org/2000/svg" viewBox="0 0 112.37 115.74"><defs><style>.cls-1{isolation:isolate;}.cls-2{fill:#efbfa5;}.cls-3{fill:#dadada;}.cls-3,.cls-6{mix-blend-mode:multiply;}.cls-4{fill:#fff;}.cls-5{fill:#f08046;}.cls-6{fill:#c6c6c6;}.cls-7{fill:#002632;}.cls-8{fill:#001922;}.cls-9{fill:#874e1b;}.cls-10{fill:#a05b22;}</style></defs><title>Asset 1</title><g class="cls-1"><g id="Layer_2" data-name="Layer 2"><g id="Capa_1" data-name="Capa 1"><rect class="cls-2" x="45.5" y="70.73" width="21.3" height="11.21"/><path class="cls-3" d="M51.45,79.32a20.38,20.38,0,0,0,9.4-2.64A17,17,0,0,0,66,72.25c.26-.34.54-.72.8-1.13v-.39H45.5v8.38A47.4,47.4,0,0,0,51.45,79.32Z"/><path class="cls-2" d="M56.15,7.82h0c-13.61.38-24,6-24,25.26,0,11.43,1.07,14.81,4.4,27.85C38.9,70,51.16,74.72,55.84,75l.31,0c.1,0,.21,0,.31,0C61.13,74.72,73.4,70,75.7,60.93c3.33-13,4.38-16.42,4.4-27.85C80.15,13.79,69.77,8.2,56.15,7.82Z"/><path class="cls-2" d="M77.5,41,76,52.4c5.85,2.57,6.76-10.83,6.76-10.83C81.42,38.23,77.5,41,77.5,41Z"/><path class="cls-2" d="M28.81,41.57S29.72,55,35.57,52.4L34.08,41S30.16,38.23,28.81,41.57Z"/><path class="cls-2" d="M67,81.93l28.77,7.49s9.82,1.51,12.33,10.33l4.29,16H0l4.29-16C6.8,90.93,16.62,89.42,16.62,89.42L45.3,81.93Z"/><path class="cls-4" d="M0,115.74l4.29-16C6.8,90.93,16.62,89.42,16.62,89.42L45.3,81.93H67l28.77,7.49s9.82,1.51,12.33,10.33l4.29,16"/><polygon class="cls-5" points="58.03 81.93 56.22 81.93 56.15 81.93 54.34 81.93 49.06 90.24 53.78 95.54 56.15 95.54 56.22 95.54 58.59 95.54 63.31 90.24 58.03 81.93"/><path class="cls-6" d="M58.8,94.53a14.86,14.86,0,0,1-3.58-12.6h-.88l-5.27,8.31,4.71,5.3h4.81l.58-.65Z"/><polygon class="cls-6" points="66.83 76.69 56.1 82.29 63.17 92.94 76.01 85.21 66.83 76.69"/><polygon class="cls-4" points="66.83 76.69 56.1 82.29 63.3 91.53 75.31 84.57 66.83 76.69"/><polygon class="cls-6" points="45.44 76.33 56.1 81.93 49.1 92.58 36.26 84.85 45.44 76.33"/><polygon class="cls-4" points="45.44 76.33 56.17 81.93 48.97 91.17 36.97 84.22 45.44 76.33"/><path class="cls-7" d="M37.1,84.09,16.62,89.42S6.8,90.93,4.29,99.75L0,115.74H112.37l-4.29-16c-2.51-8.82-12.33-10.33-12.33-10.33L74.3,83.27,56.1,114.94Z"/><polygon class="cls-5" points="53.7 95.54 51.13 106.87 56.1 114.94 60.74 106.86 58.51 95.54 53.7 95.54"/><polygon class="cls-8" points="37.1 84.09 27.4 86.61 32.87 88.74 29.49 92.58 49.06 115.74 56.67 115.74 37.1 84.09"/><polygon class="cls-8" points="74.3 83.27 84.98 86.33 79.51 88.74 82.89 92.58 63.31 115.74 55.71 115.74 74.3 83.27"/><path class="cls-9" d="M32.5,41.07l2.13,12.8L36.4,55l-1.77-18,3-7.17c16.69-5.14,19.71-12.62,19.71-12.62,19.9.41,17.21,14.23,17.21,14.23l2.93,6.22-1.77,18,1.77-1.14,2.12-12.8c3.22-7,1.29-23.39,1.29-23.39s-2.42-6.66-7.58-7.42c0,0-.8-10.14-18.24-10.92C55.11,0,18.08.2,32.5,41.07Z"/><path class="cls-10" d="M37.9,12.58c.41.68,1.28,1.55,1.52,2.07.14-.91-.32-1.7-.2-2.58a40.53,40.53,0,0,0,4.3,1.6,9.08,9.08,0,0,0-.31-2.42c2.25-.07,3.6,2,5.69,2.13.13-1.16-.38-2.1-.4-3.13,2.22,0,4.09,2.16,6.27,2a22.6,22.6,0,0,0-.39-2.55c2,0,5.11,2.74,6.59,4a20.92,20.92,0,0,1,.31-3c2.8,1.24,5,3.57,7.48,5.27.13-.87-.15-1.7-.07-2.56,2.93,1.63,4.41,5.44,6.41,8,.06-.71-.49-1.28-.43-2,.5.76,1,1.59,1.49,2.36a28.55,28.55,0,0,1-2.62-6c.28.7.54,1.39.85,2.07-1.12-1.84-3.13-3.67-3.57-5.85a1.62,1.62,0,0,0,.43,1.5,13.54,13.54,0,0,0-4.44-4.09c0,.76.82,1.3.91,2-1.11-.71-2.27-2.3-3.55-2.59.06.2,0,.58,0,.8C62.74,9.94,61,8.45,59.82,7.7a5,5,0,0,0,.24,1.38C59,8.75,57.91,7.75,56.77,7.54a1.57,1.57,0,0,0-.05,1.13c-1.61,0-3.15-.74-4.72-.68.06.18,0,.62,0,.76-.78-.45-2.69-1.15-3.6-.85s-.63.28-.59,1.23c-1.33,0-2.69-.16-4-.19a7.44,7.44,0,0,0-.2,1.13c-1,0-1.91-.26-2.87-.23,0,.23-.19.41-.19.65-.95,0-2.56-.46-2.38,1-.13,0-.29-.06-.42-.11-.14.48,0,.9.39,1.05"/></g></g></g></svg>