<svg xmlns="http://www.w3.org/2000/svg" viewBox="0 0 112.37 113.92"><defs><style>.cls-1{isolation:isolate;}.cls-2{fill:#efbfa5;}.cls-3{fill:#dadada;}.cls-3,.cls-6{mix-blend-mode:multiply;}.cls-4{fill:#fff;}.cls-5{fill:#be1622;}.cls-6{fill:#c6c6c6;}.cls-7{fill:#0d3953;}.cls-8{fill:#082a3f;}.cls-9{fill:#852d00;}.cls-10{fill:#9e3503;}</style></defs><title>Asset 2</title><g class="cls-1"><g id="Layer_2" data-name="Layer 2"><g id="Capa_1" data-name="Capa 1"><rect class="cls-2" x="45.5" y="68.91" width="21.3" height="11.21"/><path class="cls-3" d="M51.45,77.5a20.38,20.38,0,0,0,9.4-2.64A16.9,16.9,0,0,0,66,70.43c.26-.34.54-.72.8-1.13v-.39H45.5v8.38A47.4,47.4,0,0,0,51.45,77.5Z"/><path class="cls-2" d="M56.16,6h0c-13.61.38-24,6-24,25.26,0,11.43,1.07,14.81,4.4,27.85,2.31,9,14.57,13.79,19.25,14.1l.31,0,.31,0c4.67-.31,16.94-5.07,19.24-14.1,3.33-13,4.38-16.42,4.41-27.85C80.16,12,69.77,6.38,56.16,6Z"/><path class="cls-2" d="M77.5,39.19,76,50.58c5.85,2.57,6.76-10.83,6.76-10.83C81.42,36.41,77.5,39.19,77.5,39.19Z"/><path class="cls-2" d="M28.81,39.75s.91,13.4,6.76,10.83L34.08,39.19S30.16,36.41,28.81,39.75Z"/><path class="cls-2" d="M67,80.11,95.76,87.6s9.81,1.51,12.32,10.33l4.29,16H0l4.29-16C6.8,89.11,16.62,87.6,16.62,87.6L45.3,80.11Z"/><path class="cls-4" d="M0,113.92l4.29-16C6.8,89.11,16.62,87.6,16.62,87.6L45.3,80.11H67L95.76,87.6s9.81,1.51,12.32,10.33l4.29,16"/><polygon class="cls-5" points="58.04 80.11 56.22 80.11 56.15 80.11 54.34 80.11 49.07 88.42 53.78 93.72 56.15 93.72 56.22 93.72 58.59 93.72 63.31 88.42 58.04 80.11"/><path class="cls-6" d="M58.81,92.71a14.82,14.82,0,0,1-3.59-12.6h-.88l-5.27,8.31,4.71,5.3h4.81l.58-.65Q59,92.89,58.81,92.71Z"/><polygon class="cls-6" points="66.83 74.51 56.1 80.11 63.18 90.76 76.01 83.03 66.83 74.51"/><polygon class="cls-4" points="66.83 74.51 56.1 80.11 63.3 89.35 75.31 82.4 66.83 74.51"/><polygon class="cls-6" points="45.44 74.51 56.1 80.11 49.1 90.76 36.26 83.03 45.44 74.51"/><polygon class="cls-4" points="45.44 74.51 56.17 80.11 48.97 89.35 36.97 82.4 45.44 74.51"/><path class="cls-7" d="M37.1,82.27,16.62,87.6S6.8,89.11,4.29,97.93L0,113.92H112.37l-4.29-16C105.57,89.11,95.76,87.6,95.76,87.6L74.3,81.45,56.1,113.12Z"/><polygon class="cls-5" points="53.7 93.72 51.13 105.05 56.1 113.12 60.74 105.05 58.51 93.72 53.7 93.72"/><polygon class="cls-8" points="37.1 82.27 27.4 84.8 32.87 86.92 29.49 90.76 49.07 113.92 56.67 113.92 37.1 82.27"/><polygon class="cls-8" points="74.3 81.45 84.98 84.51 79.51 86.92 82.89 90.76 63.31 113.92 55.71 113.92 74.3 81.45"/><path class="cls-9" d="M34.42,40.86l1.2,14.45C29.3,38.31,33,16.08,33,16.08c2-8.21,3.88-9.61,7.13-11.31s2-1.39,7.12-2.63,0,0,6.92-1.71A17.3,17.3,0,0,1,66.8,2.6c4.72,2.78,7.67,4.19,7.67,4.19,10.37,8.05,5.64,30.36,5.64,30.36,0,5.88-3.82,19.67-3.82,19.67l1.43-18.71c0-25.84-13.19-23.55-13.19-23.55-7,1.36-15.46,0-15.46,0s-15.82-4.85-14.65,26"/><path class="cls-9" d="M35.25,50.91a22.57,22.57,0,0,0,13,16.6,13.28,13.28,0,0,0,7.42,1.4v4.3s-5.47.1-13.31-5.39C42.4,67.82,34.42,63,35.25,50.91Z"/><path class="cls-9" d="M77,50.91a22.6,22.6,0,0,1-13.71,16.6,14.57,14.57,0,0,1-7.8,1.4v4.3s5.75.1,14-5.39C69.44,67.82,77.84,63,77,50.91Z"/><path class="cls-9" d="M34.42,51.61s5.2,11.61,11.76,10.45c0,0,5.82-3.7,9.53-1.62,0,0,5.59-2.08,10,1.65,0,0,6.32-1.14,10.91-9.64,0,0-1.31,16.46-20.52,17.84C56.1,70.29,37.91,70.3,34.42,51.61Z"/><path class="cls-2" d="M56.23,65.4a12.16,12.16,0,0,0,6.14-2.16c-4-1.82-5.83-1-6.22-.75-.39-.24-2.18-1.07-6.23.75a12.22,12.22,0,0,0,6.14,2.16h.17Z"/><path class="cls-10" d="M35.75,15.44c.07.33-.12.52.18.69a19.68,19.68,0,0,1,1-3.92c.82.55,2.69,3.71,2.55.48.87-.08,1.83.89,2.52.67,1-.33,1.13-2,1.84-2.83,1.65,1.19,1.88,2.13,3.5,1.21.57-.33.38-1.44,1.16-1.66s1.37.82,2.09.91a9.9,9.9,0,0,0,3.21-.51c.82-.49,1.47-3.2,2.82-1.11,1.89-1.39,2.21,1.7,3.93,1.86,0-.28.05-.59.07-.87,1.07.76,1.28-.3,2-.23,1.43.15,1.71.86,2.85,1.32,1,.39,3.69,1.17,4.79.94,0-.14.06-.28.08-.42,1.42,1.29,2.51,3.15,4.16,4.2.15-.13.13-.34.21-.42.93,1.27,1.27,2.84,2.75,3.62.11-3-4.07-6.71-5.54-8.61.12.22.19.48.32.71a21.2,21.2,0,0,0-5.62-3.91c.08.31.07.76.16,1.08-.61-1.44-5.23-2.72-6.66-3.16,0,.34-.11.78-.07,1.13-.09-.07-1.24-.83-1.36-.75.42-.27-1.8.86-.92.75,0,0-.56.6-.93.67s-1.62-1-2.07-1.1c0,.28-.07.59-.07.87-.32-.24-1.17-.47-1.54-.88,0,.35-.11.78-.09,1.12a5.17,5.17,0,0,0-2.49-1.58,5.58,5.58,0,0,0,.23,1.54c-.47-1-1.18-1.37-1.87-.65-.94-.91-3-2.37-3.25-.24-.28,0-.4-.21-.67-.18-.87,1.16-2,.32-3,0,.12,1.22,0,2.83-1.44,2.31-.09.28-.16.59-.25.89A3.7,3.7,0,0,0,39.74,9c-.79.77-2.17.74-3.25,1.35,0,1.84-.5,3.38-.5,5.31"/></g></g></g></svg>